<svg version="1.1" id="Layer_1" xmlns="http://www.w3.org/2000/svg" xmlns:xlink="http://www.w3.org/1999/xlink" x="0px" y="0px"
	 width="100%" viewBox="0 0 617 350" enable-background="new 0 0 617 350" xml:space="preserve">
<path fill="#000000" opacity="1.000000" stroke="none" 
	d="
M403.000000,351.000000 
	C268.666687,351.000000 134.833405,351.000000 1.000072,351.000000 
	C1.000048,234.333389 1.000048,117.666786 1.000024,1.000134 
	C206.666565,1.000090 412.333130,1.000090 617.999756,1.000045 
	C617.999878,117.666534 617.999878,234.333069 617.999939,350.999817 
	C546.500000,351.000000 475.000000,351.000000 403.000000,351.000000 
M184.248169,40.988258 
	C182.416595,41.742939 180.168808,43.590752 178.820129,43.077217 
	C169.113251,39.381134 159.104568,41.422642 149.255371,41.094017 
	C142.615814,40.872478 138.961899,45.681999 140.084045,52.018368 
	C140.540558,54.596062 141.007568,57.231606 140.950974,59.829521 
	C140.763428,68.437607 140.296173,77.039177 140.026276,85.646072 
	C139.904816,89.519302 141.021637,93.538750 144.793335,94.652260 
	C151.548965,96.646721 158.644547,97.836060 163.508621,93.297104 
	C167.750198,94.368462 170.937119,95.645073 174.196503,95.869614 
	C177.754303,96.114723 181.379211,95.385521 185.445267,95.800026 
	C193.616577,95.813675 201.787903,95.827324 210.814819,95.958878 
	C215.685242,95.970795 220.569092,96.205719 225.421173,95.913315 
	C228.468750,95.729668 231.917572,95.464752 234.356247,93.923126 
	C236.539536,92.542953 237.586273,89.364845 239.187180,86.898773 
	C241.936462,91.030594 245.003601,95.847458 251.425903,95.974548 
	C257.133728,96.087502 263.047150,96.538437 265.079529,90.793823 
	C267.259308,92.171120 269.377899,94.144974 271.869171,94.918175 
	C274.783783,95.822769 278.029877,95.994949 281.120178,95.928238 
	C287.699982,95.786171 290.964203,92.204353 290.989258,85.565674 
	C291.011902,79.567245 290.880341,73.564804 291.082794,67.573120 
	C291.128479,66.221115 292.067291,63.916866 292.949951,63.730282 
	C300.303223,62.175846 300.206360,56.852615 300.043488,51.119858 
	C299.827698,43.523457 297.488708,40.580379 290.096649,41.108173 
	C279.699554,41.850533 269.428192,41.793583 259.111481,40.111435 
	C255.216263,39.476318 250.765305,39.018391 247.242218,40.313980 
	C244.206665,41.430271 242.129288,45.152161 239.512207,47.841297 
	C237.186096,41.492130 231.772064,38.927406 224.314377,39.967674 
	C220.579758,40.488609 216.790024,40.614605 212.554901,40.200108 
	C206.501373,40.133404 200.446213,39.955582 194.395020,40.045704 
	C191.251282,40.092525 188.114624,40.612839 184.248169,40.988258 
M89.063095,163.479019 
	C79.453552,166.675232 69.702408,169.506927 60.273994,173.169418 
	C50.707420,176.885559 40.660782,180.211349 33.560825,188.157547 
	C30.560247,191.515778 28.696518,195.935715 26.540010,199.992142 
	C22.647474,207.314087 18.041571,214.418594 15.341473,222.173706 
	C11.560485,233.033325 15.817854,244.123413 16.536489,255.119980 
	C16.800352,259.157623 18.234724,263.688019 16.911644,267.141876 
	C14.138492,274.381134 13.532842,274.149139 19.374352,278.926270 
	C24.100227,282.791046 24.099190,285.983551 19.370815,289.807556 
	C15.239489,293.148682 15.239836,295.268921 19.469851,298.228333 
	C20.962378,299.272583 22.520527,300.268311 24.162098,301.047272 
	C41.924274,309.476044 61.233017,312.345886 80.255539,315.775452 
	C98.448776,319.055481 116.895676,321.117096 135.307571,322.942871 
	C153.916580,324.788177 172.602341,326.108459 191.286606,326.869080 
	C206.759277,327.498871 222.290375,327.353790 237.774490,326.872864 
	C256.657837,326.286346 275.517151,324.948547 294.391449,324.030975 
	C298.714264,323.820801 303.059998,323.878998 307.388306,324.021515 
	C323.828644,324.562744 339.685425,321.393219 355.350189,316.784607 
	C378.718384,309.909668 401.944580,302.454865 425.549957,296.513245 
	C445.736908,291.432098 466.299469,287.707306 486.834229,284.190186 
	C501.152618,281.737701 515.690063,280.509674 530.156616,278.992157 
	C544.465088,277.491180 558.804443,276.279480 573.135864,275.004425 
	C584.734253,273.972504 593.596985,269.136230 598.561646,258.005737 
	C603.367859,247.230499 604.346680,235.988632 604.043823,224.402832 
	C603.574768,206.456451 599.075928,189.734436 587.193298,176.099060 
	C578.590515,166.227341 568.399231,163.085754 556.888733,171.871475 
	C553.253357,174.646286 550.371765,178.484207 547.436829,182.074020 
	C545.546875,184.385620 544.216614,185.874527 540.957520,183.792877 
	C538.536316,182.246429 535.414185,181.541870 532.505188,181.057114 
	C517.036560,178.479324 501.516144,178.313309 485.900940,179.903946 
	C466.976318,181.831711 448.002899,183.276764 429.059326,185.025024 
	C425.114410,185.389084 422.794159,184.122696 421.815430,180.077621 
	C421.078522,177.032135 419.641724,174.161423 418.606354,171.181671 
	C416.202850,164.264694 410.734772,162.174103 404.121338,162.024445 
	C398.957672,161.907578 393.786774,162.093933 388.624115,161.956863 
	C386.379120,161.897263 384.146667,161.364670 381.908539,161.046906 
	C386.630371,159.477066 391.300110,158.625992 396.001953,158.026749 
	C409.940308,156.250275 423.905518,154.679947 437.833282,152.826721 
	C451.425781,151.018097 464.953400,148.690216 478.568115,147.089020 
	C491.669342,145.548233 503.787231,141.394867 515.143616,134.879395 
	C520.153259,132.005264 520.978760,128.239243 518.053101,123.148262 
	C512.859131,114.109947 505.263977,108.382172 494.810516,107.054985 
	C482.840454,105.535225 470.859650,103.975143 458.836609,103.026230 
	C438.696350,101.436646 418.533234,99.574364 398.353577,99.185730 
	C372.303558,98.684052 346.176239,97.883842 320.242035,101.954506 
	C306.041992,104.183350 291.717133,105.660995 277.565308,108.143051 
	C256.397125,111.855682 236.101608,118.488419 216.592865,127.598305 
	C205.762299,132.655777 194.994919,138.195343 183.636276,141.686554 
	C169.770630,145.948318 155.306808,148.255020 141.115555,151.468567 
	C124.012672,155.341431 106.924377,159.278717 89.063095,163.479019 
M426.972565,46.481434 
	C419.200073,39.836411 410.203949,38.592056 400.592072,40.826927 
	C385.440399,44.349854 377.989777,62.472263 382.317474,76.704353 
	C386.426331,90.216721 397.773621,97.591362 411.904755,96.083702 
	C416.393829,95.604767 420.990814,95.761520 425.510864,96.053703 
	C430.024689,96.345490 433.263947,95.156357 434.387512,90.365440 
	C445.477905,99.229660 462.325623,99.230988 473.190247,86.395302 
	C481.546906,76.522614 481.612976,59.827831 473.580048,50.122894 
	C469.158722,44.781239 463.744843,40.755955 456.622833,40.061451 
	C446.264374,39.051346 436.756653,40.753586 430.358459,50.526176 
	C429.088776,48.966892 428.287628,47.983013 426.972565,46.481434 
M371.583038,65.854652 
	C374.783234,59.089741 376.341492,52.358555 372.120422,45.316082 
	C368.378723,39.073410 363.983917,37.658619 357.483978,40.949398 
	C356.888336,41.250946 356.041321,41.174179 355.327606,41.104240 
	C351.916168,40.769966 348.512939,40.118656 345.101837,40.085144 
	C342.222748,40.056858 338.831055,39.914051 336.599945,41.312069 
	C334.479858,42.640491 333.570404,45.900925 331.834930,48.802990 
	C328.928833,40.152050 322.100250,39.111584 314.362732,40.003242 
	C314.198547,40.022160 314.026917,40.027630 313.864471,40.002411 
	C308.829468,39.220676 306.391541,41.417130 305.189850,47.220398 
	C304.569550,50.215996 305.304291,53.479469 305.322357,56.622505 
	C305.365906,64.191940 305.532349,71.767601 305.291504,79.329361 
	C305.123749,84.596336 303.638763,90.374672 308.692505,93.929932 
	C313.561279,97.355057 319.593994,97.042404 324.753937,94.721680 
	C327.537537,93.469719 329.272125,89.885445 330.927094,87.987526 
	C333.810272,90.133545 337.133453,94.422714 341.166321,95.249290 
	C351.047760,97.274597 358.911041,95.310661 358.025970,83.134583 
	C357.813202,80.207436 357.994385,77.251656 357.994385,73.682320 
	C365.297180,75.663857 368.004150,70.754745 371.583038,65.854652 
z"/>
<path fill="#0B0B0B" opacity="1.000000" stroke="none" 
	d="
M89.446426,163.333572 
	C106.924377,159.278717 124.012672,155.341431 141.115555,151.468567 
	C155.306808,148.255020 169.770630,145.948318 183.636276,141.686554 
	C194.994919,138.195343 205.762299,132.655777 216.592865,127.598305 
	C236.101608,118.488419 256.397125,111.855682 277.565308,108.143051 
	C291.717133,105.660995 306.041992,104.183350 320.242035,101.954506 
	C346.176239,97.883842 372.303558,98.684052 398.353577,99.185730 
	C418.533234,99.574364 438.696350,101.436646 458.836609,103.026230 
	C470.859650,103.975143 482.840454,105.535225 494.810516,107.054985 
	C505.263977,108.382172 512.859131,114.109947 518.053101,123.148262 
	C520.978760,128.239243 520.153259,132.005264 515.143616,134.879395 
	C503.787231,141.394867 491.669342,145.548233 478.568115,147.089020 
	C464.953400,148.690216 451.425781,151.018097 437.833282,152.826721 
	C423.905518,154.679947 409.940308,156.250275 396.001953,158.026749 
	C391.300110,158.625992 386.630371,159.477066 381.908539,161.046906 
	C384.146667,161.364670 386.379120,161.897263 388.624115,161.956863 
	C393.786774,162.093933 398.957672,161.907578 404.121338,162.024445 
	C410.734772,162.174103 416.202850,164.264694 418.606354,171.181671 
	C419.641724,174.161423 421.078522,177.032135 421.815430,180.077621 
	C422.794159,184.122696 425.114410,185.389084 429.059326,185.025024 
	C448.002899,183.276764 466.976318,181.831711 485.900940,179.903946 
	C501.516144,178.313309 517.036560,178.479324 532.505188,181.057114 
	C535.414185,181.541870 538.536316,182.246429 540.957520,183.792877 
	C544.216614,185.874527 545.546875,184.385620 547.436829,182.074020 
	C550.371765,178.484207 553.253357,174.646286 556.888733,171.871475 
	C568.399231,163.085754 578.590515,166.227341 587.193298,176.099060 
	C599.075928,189.734436 603.574768,206.456451 604.043823,224.402832 
	C604.346680,235.988632 603.367859,247.230499 598.561646,258.005737 
	C593.596985,269.136230 584.734253,273.972504 573.135864,275.004425 
	C558.804443,276.279480 544.465088,277.491180 530.156616,278.992157 
	C515.690063,280.509674 501.152618,281.737701 486.834229,284.190186 
	C466.299469,287.707306 445.736908,291.432098 425.549957,296.513245 
	C401.944580,302.454865 378.718384,309.909668 355.350189,316.784607 
	C339.685425,321.393219 323.828644,324.562744 307.388306,324.021515 
	C303.059998,323.878998 298.714264,323.820801 294.391449,324.030975 
	C275.517151,324.948547 256.657837,326.286346 237.774490,326.872864 
	C222.290375,327.353790 206.759277,327.498871 191.286606,326.869080 
	C172.602341,326.108459 153.916580,324.788177 135.307571,322.942871 
	C116.895676,321.117096 98.448776,319.055481 80.255539,315.775452 
	C61.233017,312.345886 41.924274,309.476044 24.162098,301.047272 
	C22.520527,300.268311 20.962378,299.272583 19.469851,298.228333 
	C15.239836,295.268921 15.239489,293.148682 19.370815,289.807556 
	C24.099190,285.983551 24.100227,282.791046 19.374352,278.926270 
	C13.532842,274.149139 14.138492,274.381134 16.911644,267.141876 
	C18.234724,263.688019 16.800352,259.157623 16.536489,255.119980 
	C15.817854,244.123413 11.560485,233.033325 15.341473,222.173706 
	C18.041571,214.418594 22.647474,207.314087 26.540010,199.992142 
	C28.696518,195.935715 30.560247,191.515778 33.560825,188.157547 
	C40.660782,180.211349 50.707420,176.885559 60.273994,173.169418 
	C69.702408,169.506927 79.453552,166.675232 89.446426,163.333572 
M512.760498,249.858566 
	C513.147339,249.564133 513.534180,249.269714 514.686890,248.980408 
	C516.416382,248.638184 518.145935,248.295959 520.313354,248.796997 
	C520.313354,252.892578 520.313354,256.988159 520.313354,261.579956 
	C525.691345,260.893982 530.106567,260.062164 534.552307,259.839539 
	C538.977722,259.617920 539.848450,257.614624 539.683960,253.478729 
	C539.042297,237.342499 538.772949,221.191086 538.413940,205.044235 
	C538.319275,200.787643 538.399658,196.527161 538.399658,191.901230 
	C532.971863,192.549637 528.035767,192.952011 523.190674,193.847229 
	C521.948975,194.076675 520.556946,195.668488 519.981567,196.965927 
	C516.880798,203.958008 514.050964,211.069626 511.056061,218.109558 
	C509.139526,222.614700 507.099243,227.067184 504.669647,232.546280 
	C503.180115,229.898148 502.220978,228.377563 501.438416,226.770966 
	C497.282410,218.238953 493.251556,209.644363 488.959839,201.181763 
	C488.285919,199.852966 486.444855,198.156403 485.234528,198.225464 
	C479.992676,198.524582 474.784668,199.415848 470.348206,199.990280 
	C470.348206,213.429932 470.348206,226.229752 470.013367,239.479736 
	C469.950775,239.655960 469.888153,239.832169 469.037476,240.004135 
	C467.006775,240.341766 464.976105,240.679398 462.542145,240.941437 
	C462.542145,240.941437 462.131836,240.939102 461.918945,240.041458 
	C461.965393,238.049805 462.105438,236.055222 462.043671,234.066940 
	C461.458832,215.241470 449.586700,204.044662 430.943451,205.086517 
	C422.511627,205.557709 414.095581,206.514969 405.710449,207.557861 
	C398.015228,208.514969 398.228973,208.692688 398.375763,216.525192 
	C398.621307,229.628326 398.595276,242.736557 398.335815,255.903275 
	C398.335815,255.903275 397.996002,255.998856 397.290588,256.070007 
	C394.500397,257.720642 391.710205,259.371307 388.297882,260.540466 
	C388.297882,243.773254 388.297882,227.006042 388.297882,209.669632 
	C381.014221,210.530258 374.085449,211.348953 367.350464,212.144760 
	C367.845642,223.251724 368.771118,233.697479 368.662567,244.132462 
	C368.520264,257.811371 371.810089,272.526306 358.522156,283.044647 
	C363.430878,287.310455 367.883789,291.180145 372.615875,295.292419 
	C380.351868,288.991852 383.970978,280.375702 387.345398,270.651611 
	C390.933411,270.103668 394.521393,269.555725 398.598511,269.769958 
	C398.598511,272.544647 398.598511,275.319336 398.598511,278.869659 
	C409.383423,277.298920 419.609619,275.677368 429.873901,274.350494 
	C440.946655,272.919098 449.377899,267.568970 455.767334,257.985046 
	C456.184692,257.658508 456.602051,257.331970 457.881470,257.002777 
	C461.758942,256.665924 465.636444,256.329102 469.926880,256.834503 
	C469.926880,260.600800 469.926880,264.367096 469.926880,268.695801 
	C476.287720,267.821045 482.108643,267.020508 487.999603,266.210358 
	C487.999603,261.537018 487.999603,257.268402 488.352783,252.670685 
	C488.532135,252.395264 488.764496,252.175980 489.833221,252.005783 
	C491.239746,251.630203 492.646301,251.254639 494.573761,251.003342 
	C494.923492,251.070618 495.273193,251.137909 495.913116,251.874146 
	C497.605164,255.262253 499.158844,258.730896 501.060028,261.997284 
	C501.780457,263.235046 503.419647,264.905762 504.429871,264.773499 
	C505.838898,264.589020 507.637268,263.156860 508.234802,261.802399 
	C509.891449,258.047058 511.012817,254.055603 512.760498,249.858566 
M173.502350,170.999954 
	C202.446243,158.958206 233.341537,159.001389 263.880096,156.449890 
	C262.658905,155.784195 261.439301,155.173279 260.182251,155.082794 
	C249.779327,154.333817 239.366425,153.723724 228.962708,152.984833 
	C221.707687,152.469589 214.470673,151.483612 207.210831,151.303772 
	C195.738281,151.019592 184.138458,150.226532 172.805405,151.517670 
	C161.042816,152.857758 149.461075,156.135712 137.928284,159.069504 
	C113.916573,165.177734 90.315201,172.586182 68.209015,183.996506 
	C61.310555,187.557190 54.865337,191.996017 48.212639,196.032852 
	C48.400459,196.633652 48.588280,197.234467 48.776100,197.835266 
	C57.041290,199.223984 65.280853,200.797104 73.578789,201.950211 
	C82.081970,203.131851 90.621841,204.369431 99.182350,204.744110 
	C112.243683,205.315796 124.971016,205.282501 137.658127,199.527740 
	C155.285095,191.532318 173.785934,185.416092 192.067535,178.931961 
	C200.680069,175.877243 209.653259,173.839386 218.463028,171.340775 
	C218.358704,170.722992 218.254364,170.105209 218.150040,169.487427 
	C204.310776,171.677414 190.398956,173.493759 176.652634,176.162521 
	C162.911484,178.830276 149.335876,182.350693 135.687698,185.497330 
	C135.566956,185.080688 135.446213,184.664047 135.325485,184.247406 
	C147.795273,179.897171 160.265076,175.546936 173.502350,170.999954 
M286.411560,310.183685 
	C293.245026,314.265442 300.659882,316.771545 308.595093,316.522278 
	C324.933838,316.009155 337.328278,308.053680 346.097900,294.633911 
	C354.915100,281.141327 358.495270,266.350250 356.078796,250.130142 
	C353.817108,234.948807 347.439606,222.098969 334.972198,213.110489 
	C316.462921,199.766068 290.201233,204.847290 275.592499,224.031036 
	C256.333160,249.321777 258.143005,291.017761 286.411560,310.183685 
M385.599792,118.181778 
	C386.423553,117.611427 387.247314,117.041084 388.750214,116.000519 
	C361.826050,116.000519 335.842194,115.908272 309.859802,116.060905 
	C302.748993,116.102676 295.593689,116.497009 288.544281,117.398209 
	C274.166687,119.236244 260.383667,123.497597 246.974411,128.909119 
	C236.972046,132.945724 227.037613,137.158875 217.169617,141.512543 
	C215.417526,142.285553 214.139526,144.133148 212.642593,145.484543 
	C212.937408,145.923386 213.232208,146.362228 213.527008,146.801071 
	C224.067230,147.534210 234.597076,148.581329 245.149994,148.930832 
	C263.412262,149.535614 281.568817,148.732559 299.625549,145.205811 
	C313.554901,142.485199 328.265289,142.671783 341.625061,138.416000 
	C356.660126,133.626526 370.569672,125.303711 385.599792,118.181778 
M557.020325,223.036743 
	C557.633179,225.612762 557.852539,230.207962 558.926636,230.417282 
	C563.725647,231.352524 562.976868,234.543945 562.993469,237.635498 
	C563.018555,242.298660 562.796997,246.974625 563.083923,251.620193 
	C563.231995,254.016739 563.699341,256.718414 564.967529,258.667297 
	C572.297607,269.931763 582.313293,272.190155 590.849915,259.588776 
	C592.598877,257.007141 593.904175,254.064987 595.052795,251.146805 
	C600.353882,237.678192 601.157654,223.637863 598.764282,209.595642 
	C597.128662,199.998489 594.668640,190.409668 586.888062,183.326019 
	C580.948120,177.918137 574.132080,177.407822 569.095337,183.732117 
	C565.063965,188.793991 562.559143,195.100021 559.580200,200.957336 
	C558.437012,203.205093 558.611511,205.244003 560.549500,207.610092 
	C562.840454,210.407104 562.989441,214.007172 560.342407,217.224808 
	C559.090088,218.747040 558.174866,220.546539 557.020325,223.036743 
M344.897797,196.525757 
	C348.184662,199.671097 351.471558,202.816422 354.758423,205.961746 
	C355.172455,205.792480 355.586456,205.623199 356.000458,205.453934 
	C356.000458,203.713501 356.192566,201.946991 355.960419,200.238098 
	C355.477661,196.684143 357.162476,194.918793 360.431610,194.357956 
	C369.061005,192.877502 377.708740,191.501648 386.328888,189.970001 
	C391.534790,189.045029 396.702850,187.907120 402.344482,186.773102 
	C395.610291,177.612701 386.809418,172.017654 377.332825,169.809647 
	C374.680969,169.191772 372.044189,167.815018 369.827728,166.200043 
	C367.124908,164.230682 364.662170,163.684067 361.517426,164.945496 
	C356.899261,166.797974 352.131317,168.272980 347.469238,170.020905 
	C335.894928,174.360443 324.344391,178.763412 312.784302,183.140900 
	C324.720764,184.637222 335.244232,188.532471 344.897797,196.525757 
M104.102150,228.395309 
	C104.771881,227.249466 105.441605,226.103622 106.151474,224.889099 
	C87.496864,221.756989 69.580032,218.780731 51.677120,215.722900 
	C46.453419,214.830704 37.871841,219.374146 35.379391,224.826706 
	C36.838058,225.232208 38.217106,225.729126 39.639374,225.993347 
	C53.613358,228.589279 67.735313,230.557144 81.540199,233.854813 
	C101.543419,238.633118 121.704369,237.865204 141.871750,236.854187 
	C157.059509,236.092819 172.179138,233.538818 187.360794,233.199127 
	C206.373535,232.773712 219.273026,222.318954 231.033279,209.258453 
	C228.899628,209.715210 227.005554,210.654556 225.527832,212.038483 
	C218.133331,218.963486 210.053207,224.748077 199.762405,226.144821 
	C188.310074,227.699203 176.817215,229.345520 165.292496,229.875748 
	C151.410202,230.514435 137.458557,230.424057 123.571915,229.830795 
	C117.483856,229.570709 111.623817,228.156326 106.007317,231.759018 
	C104.826355,232.516556 103.019951,232.299042 100.474915,232.687576 
	C101.967064,230.877548 102.774498,229.898117 104.102150,228.395309 
M409.267456,127.782539 
	C401.157013,129.818115 393.046600,131.853683 384.936188,133.889267 
	C386.700928,135.000473 388.277954,135.041748 389.852264,134.994232 
	C411.567444,134.338776 433.281616,133.650009 454.997375,133.014404 
	C467.933868,132.635757 480.874603,132.395386 493.809540,131.973541 
	C499.596313,131.784821 505.388275,131.447891 511.145660,130.861618 
	C512.766724,130.696548 515.342041,129.647034 515.578308,128.581528 
	C515.918823,127.046043 515.029663,124.420784 513.765137,123.509415 
	C510.736755,121.326736 507.332947,118.794235 503.816315,118.305595 
	C485.486359,115.758621 467.109619,116.420898 448.905823,119.611511 
	C435.894104,121.892090 422.998322,124.834183 409.267456,127.782539 
M157.455978,211.042633 
	C160.143921,209.032394 162.604034,206.516815 165.591110,205.170029 
	C168.028793,204.070999 171.094391,204.352371 173.884735,204.050934 
	C177.407303,203.670410 180.933090,203.319580 184.457489,202.955948 
	C184.130417,203.538254 183.803345,204.120544 183.476288,204.702835 
	C185.515549,207.112946 187.111328,210.661118 189.697113,211.668732 
	C193.661957,213.213760 196.911224,210.410828 199.079193,206.853119 
	C199.856277,205.577896 200.444046,204.065872 201.522400,203.125381 
	C202.983887,201.850754 204.781189,200.251450 206.526596,200.131424 
	C215.458450,199.517136 224.427505,199.452759 233.363953,198.886780 
	C234.929535,198.787628 236.401733,197.214417 237.917068,196.321976 
	C236.608536,194.878586 235.362061,192.266174 233.980789,192.192841 
	C227.780670,191.863678 221.457001,191.648880 215.334320,192.507812 
	C199.799194,194.687134 184.327209,197.345642 168.870697,200.045593 
	C159.174255,201.739380 149.551514,203.855118 139.895706,205.781525 
	C139.953033,206.189514 140.010361,206.597519 140.067703,207.005524 
	C141.659912,207.005524 143.340317,206.687622 144.818771,207.097733 
	C146.209610,207.483551 147.964249,208.342102 148.559219,209.504395 
	C151.158600,214.582169 151.400345,214.745163 157.455978,211.042633 
M209.802048,293.048462 
	C201.780457,294.032135 193.765808,295.077393 185.735535,295.984161 
	C175.213470,297.172333 164.679047,298.251190 154.149948,299.377075 
	C154.161942,299.540100 154.173935,299.703094 154.185928,299.866119 
	C182.083313,299.197754 209.980713,298.529388 237.878098,297.861053 
	C237.913956,297.516235 237.949814,297.171417 237.985672,296.826630 
	C228.898239,295.553955 219.810822,294.281311 209.802048,293.048462 
M408.161713,147.956909 
	C413.266937,146.812119 418.372162,145.667328 423.477386,144.522522 
	C423.371521,143.974640 423.265625,143.426743 423.159760,142.878860 
	C411.526855,140.932983 399.912903,139.289474 388.740753,144.699387 
	C388.727936,145.238281 388.715088,145.777176 388.702240,146.316071 
	C394.886780,146.874878 401.071350,147.433701 408.161713,147.956909 
M224.411316,169.000763 
	C223.423401,169.219604 222.435501,169.438461 221.447586,169.657318 
	C221.504059,169.950821 221.560532,170.244324 221.617004,170.537827 
	C223.430038,170.251114 225.243057,169.964417 227.056076,169.677704 
	C227.047745,169.520432 227.039413,169.363144 227.031082,169.205856 
	C226.389557,169.137421 225.748016,169.069000 224.411316,169.000763 
M356.517029,207.410568 
	C356.517029,207.410568 356.582306,207.520828 356.517029,207.410568 
z"/>
<path fill="#B23B3B" opacity="1.000000" stroke="none" 
	d="
M184.974869,95.081009 
	C181.379211,95.385521 177.754303,96.114723 174.196503,95.869614 
	C170.937119,95.645073 167.750198,94.368462 163.508621,93.297104 
	C158.644547,97.836060 151.548965,96.646721 144.793335,94.652260 
	C141.021637,93.538750 139.904816,89.519302 140.026276,85.646072 
	C140.296173,77.039177 140.763428,68.437607 140.950974,59.829521 
	C141.007568,57.231606 140.540558,54.596062 140.084045,52.018368 
	C138.961899,45.681999 142.615814,40.872478 149.255371,41.094017 
	C159.104568,41.422642 169.113251,39.381134 178.820129,43.077217 
	C180.168808,43.590752 182.416595,41.742939 185.080032,40.986046 
	C194.949677,40.962296 203.987442,40.940762 213.025223,40.919220 
	C216.790024,40.614605 220.579758,40.488609 224.314377,39.967674 
	C231.772064,38.927406 237.186096,41.492130 239.512207,47.841297 
	C242.129288,45.152161 244.206665,41.430271 247.242218,40.313980 
	C250.765305,39.018391 255.216263,39.476318 259.111481,40.111435 
	C269.428192,41.793583 279.699554,41.850533 290.096649,41.108173 
	C297.488708,40.580379 299.827698,43.523457 300.043488,51.119858 
	C300.206360,56.852615 300.303223,62.175846 292.949951,63.730282 
	C292.067291,63.916866 291.128479,66.221115 291.082794,67.573120 
	C290.880341,73.564804 291.011902,79.567245 290.989258,85.565674 
	C290.964203,92.204353 287.699982,95.786171 281.120178,95.928238 
	C278.029877,95.994949 274.783783,95.822769 271.869171,94.918175 
	C269.377899,94.144974 267.259308,92.171120 265.079529,90.793823 
	C263.047150,96.538437 257.133728,96.087502 251.425903,95.974548 
	C245.003601,95.847458 241.936462,91.030594 239.187180,86.898773 
	C237.586273,89.364845 236.539536,92.542953 234.356247,93.923126 
	C231.917572,95.464752 228.468750,95.729668 225.421173,95.913315 
	C220.569092,96.205719 215.685242,95.970795 210.089691,95.611160 
	C201.234665,95.202629 193.104767,95.141823 184.974869,95.081009 
M259.002777,85.314468 
	C259.002777,72.375862 259.002777,59.437252 259.002777,46.264595 
	C255.514587,46.264595 251.790192,46.264595 247.639862,46.264595 
	C247.639862,53.970722 247.639862,61.420403 247.639862,70.254425 
	C242.871078,63.558369 238.448395,58.294193 235.115967,52.412327 
	C231.533188,46.088554 226.692078,44.781200 220.065155,46.546387 
	C220.065155,60.528515 220.065155,74.565636 220.065155,88.636269 
	C224.105515,88.636269 227.818024,88.636269 231.862213,88.636269 
	C231.862213,81.408531 231.862213,74.541847 231.862213,66.329811 
	C236.830643,73.059769 241.056015,78.741188 245.234390,84.456970 
	C248.312088,88.667137 252.823166,90.409477 257.586426,88.857277 
	C258.266602,88.635628 258.539734,87.164848 259.002777,85.314468 
M158.841583,78.713318 
	C159.299164,77.490639 159.756744,76.267960 160.214325,75.045280 
	C161.757294,75.711449 164.004364,75.957176 164.703171,77.127426 
	C166.388412,79.949661 167.115433,83.333511 168.711288,86.224594 
	C169.407928,87.486664 171.207001,88.687317 172.644226,88.879913 
	C175.660400,89.284096 178.768433,89.002579 182.614227,89.002579 
	C180.471970,84.459656 178.830780,80.674873 176.920807,77.030991 
	C175.538834,74.394470 175.448151,72.653076 177.908676,70.218803 
	C184.733154,63.467125 182.413376,51.330830 173.603409,48.348785 
	C164.971405,45.426991 155.982391,47.224709 147.175674,47.291512 
	C147.175674,61.630028 147.175674,75.169472 147.175674,88.750214 
	C151.387665,88.750214 155.154846,88.750214 159.325790,88.750214 
	C159.169205,85.541199 159.025650,82.598923 158.841583,78.713318 
M190.579559,46.998863 
	C188.677719,46.998863 186.775879,46.998863 184.760773,46.998863 
	C184.760773,61.404045 184.760773,75.001099 184.760773,89.001442 
	C192.453201,89.001442 199.920502,88.941261 207.386383,89.018776 
	C214.512527,89.092751 214.524658,89.156662 214.996887,82.090340 
	C215.080795,80.834648 215.008804,79.568542 215.008804,78.034340 
	C210.269821,78.378418 206.004623,78.754997 201.731445,78.979416 
	C197.515350,79.200844 196.039932,77.314224 197.472427,73.206413 
	C202.563171,73.206413 207.458115,73.206413 212.647537,73.206413 
	C212.850662,69.366287 213.037537,65.833076 213.239685,62.011265 
	C208.984940,62.377274 205.369385,62.650574 201.762207,63.008221 
	C197.325378,63.448120 196.020950,61.590717 197.674210,56.896877 
	C203.008377,57.232544 208.382278,57.570709 214.347061,57.946056 
	C214.058151,54.130741 213.802292,50.751778 213.518097,46.998859 
	C205.836380,46.998859 198.698624,46.998859 190.579559,46.998863 
M282.182098,89.006508 
	C283.024445,88.112625 284.511353,87.270164 284.587555,86.315155 
	C284.810516,83.519836 284.388153,80.680260 284.368988,77.856995 
	C284.320038,70.650505 284.352661,63.443462 284.352661,56.344200 
	C287.730286,56.561581 290.605682,56.746639 293.305969,56.920429 
	C293.305969,53.284599 293.305969,50.246449 293.305969,47.497086 
	C283.292908,47.497086 273.735229,47.497086 263.804901,47.497086 
	C263.347321,50.305168 262.849915,53.357700 262.253632,57.017159 
	C265.613159,56.819458 268.684998,56.638691 272.081024,56.438843 
	C272.081024,67.103485 272.081024,77.826813 272.081024,89.010078 
	C275.347198,89.010078 278.300323,89.010078 282.182098,89.006508 
z"/>
<path fill="#B23C3C" opacity="1.000000" stroke="none" 
	d="
M427.229523,46.740284 
	C428.287628,47.983013 429.088776,48.966892 430.358459,50.526176 
	C436.756653,40.753586 446.264374,39.051346 456.622833,40.061451 
	C463.744843,40.755955 469.158722,44.781239 473.580048,50.122894 
	C481.612976,59.827831 481.546906,76.522614 473.190247,86.395302 
	C462.325623,99.230988 445.477905,99.229660 434.387512,90.365440 
	C433.263947,95.156357 430.024689,96.345490 425.510864,96.053703 
	C420.990814,95.761520 416.393829,95.604767 411.904755,96.083702 
	C397.773621,97.591362 386.426331,90.216721 382.317474,76.704353 
	C377.989777,62.472263 385.440399,44.349854 400.592072,40.826927 
	C410.203949,38.592056 419.200073,39.836411 427.229523,46.740284 
M432.894623,78.356667 
	C433.211029,78.940727 433.486145,79.551979 433.850006,80.104790 
	C439.733551,89.043579 450.318481,92.470375 460.065765,88.604225 
	C469.566437,84.835892 474.971283,73.910889 472.736694,62.992058 
	C470.682800,52.956108 461.950867,45.935017 451.602203,45.998371 
	C435.769775,46.095287 426.574707,61.362099 432.894623,78.356667 
M393.098541,52.641186 
	C386.481903,61.101921 385.532166,70.329079 390.465729,79.696548 
	C394.947784,88.206764 402.840454,90.701050 412.027893,89.949867 
	C417.133118,89.532455 422.244781,89.193336 427.519684,88.806755 
	C427.519684,82.189217 427.519684,74.644859 427.519684,66.925568 
	C423.228302,66.925568 419.341370,66.925568 415.043121,66.925568 
	C415.267731,70.622124 415.473602,74.010101 415.671875,77.272942 
	C408.639160,79.927208 403.744629,79.075157 401.082306,74.916718 
	C398.261536,70.510735 398.971771,63.183586 402.568237,59.586689 
	C406.334534,55.819954 410.506439,56.147594 418.357361,60.826649 
	C426.182983,54.431137 425.955780,51.245106 417.045990,47.724712 
	C408.432983,44.321583 400.419464,45.355328 393.098541,52.641186 
z"/>
<path fill="#B23B3B" opacity="1.000000" stroke="none" 
	d="
M371.324585,66.129395 
	C368.004150,70.754745 365.297180,75.663857 357.994385,73.682320 
	C357.994385,77.251656 357.813202,80.207436 358.025970,83.134583 
	C358.911041,95.310661 351.047760,97.274597 341.166321,95.249290 
	C337.133453,94.422714 333.810272,90.133545 330.927094,87.987526 
	C329.272125,89.885445 327.537537,93.469719 324.753937,94.721680 
	C319.593994,97.042404 313.561279,97.355057 308.692505,93.929932 
	C303.638763,90.374672 305.123749,84.596336 305.291504,79.329361 
	C305.532349,71.767601 305.365906,64.191940 305.322357,56.622505 
	C305.304291,53.479469 304.569550,50.215996 305.189850,47.220398 
	C306.391541,41.417130 308.829468,39.220676 313.864471,40.002411 
	C314.026917,40.027630 314.198547,40.022160 314.362732,40.003242 
	C322.100250,39.111584 328.928833,40.152050 331.834930,48.802990 
	C333.570404,45.900925 334.479858,42.640491 336.599945,41.312069 
	C338.831055,39.914051 342.222748,40.056858 345.101837,40.085144 
	C348.512939,40.118656 351.916168,40.769966 355.327606,41.104240 
	C356.041321,41.174179 356.888336,41.250946 357.483978,40.949398 
	C363.983917,37.658619 368.378723,39.073410 372.120422,45.316082 
	C376.341492,52.358555 374.783234,59.089741 371.324585,66.129395 
M339.534271,48.521755 
	C339.534271,55.292843 339.534271,62.063931 339.534271,70.120369 
	C334.832092,63.513020 330.408447,58.254734 327.089081,52.373226 
	C323.508209,46.028271 318.641235,44.831196 312.045227,46.550022 
	C312.045227,60.523529 312.045227,74.543968 312.045227,88.664322 
	C316.059662,88.664322 319.769958,88.664322 324.027222,88.664322 
	C324.027222,81.418976 324.027222,74.500656 324.027222,66.541153 
	C328.590088,72.704872 332.996033,77.593666 336.144684,83.189865 
	C339.753235,89.603386 344.774200,89.721710 351.246582,88.518776 
	C351.246582,74.343666 351.246582,60.309479 351.246582,45.231312 
	C347.114594,46.092670 343.333466,46.880882 339.534271,48.521755 
M366.405853,61.604855 
	C369.683868,53.373039 368.750732,49.198742 362.546783,45.063477 
	C360.272675,47.092403 357.963013,49.153038 355.285828,51.541588 
	C360.729340,55.341892 361.390533,59.664989 357.174530,64.588043 
	C358.580292,65.856194 359.771942,66.931190 361.398590,68.398621 
	C363.080200,66.169128 364.550964,64.219162 366.405853,61.604855 
z"/>
<path fill="#FF0000" opacity="1.000000" stroke="none" 
	d="
M212.790070,40.559666 
	C203.987442,40.940762 194.949677,40.962296 185.443329,40.951546 
	C188.114624,40.612839 191.251282,40.092525 194.395020,40.045704 
	C200.446213,39.955582 206.501373,40.133404 212.790070,40.559666 
z"/>
<path fill="#FF0000" opacity="1.000000" stroke="none" 
	d="
M185.210068,95.440521 
	C193.104767,95.141823 201.234665,95.202629 209.661896,95.552200 
	C201.787903,95.827324 193.616577,95.813675 185.210068,95.440521 
z"/>
<path fill="#000000" opacity="1.000000" stroke="none" 
	d="
M173.118622,171.098328 
	C160.265076,175.546936 147.795273,179.897171 135.325485,184.247406 
	C135.446213,184.664047 135.566956,185.080688 135.687698,185.497330 
	C149.335876,182.350693 162.911484,178.830276 176.652634,176.162521 
	C190.398956,173.493759 204.310776,171.677414 218.150040,169.487427 
	C218.254364,170.105209 218.358704,170.722992 218.463028,171.340775 
	C209.653259,173.839386 200.680069,175.877243 192.067535,178.931961 
	C173.785934,185.416092 155.285095,191.532318 137.658127,199.527740 
	C124.971016,205.282501 112.243683,205.315796 99.182350,204.744110 
	C90.621841,204.369431 82.081970,203.131851 73.578789,201.950211 
	C65.280853,200.797104 57.041290,199.223984 48.776100,197.835266 
	C48.588280,197.234467 48.400459,196.633652 48.212639,196.032852 
	C54.865337,191.996017 61.310555,187.557190 68.209015,183.996506 
	C90.315201,172.586182 113.916573,165.177734 137.928284,159.069504 
	C149.461075,156.135712 161.042816,152.857758 172.805405,151.517670 
	C184.138458,150.226532 195.738281,151.019592 207.210831,151.303772 
	C214.470673,151.483612 221.707687,152.469589 228.962708,152.984833 
	C239.366425,153.723724 249.779327,154.333817 260.182251,155.082794 
	C261.439301,155.173279 262.658905,155.784195 263.880096,156.449890 
	C233.341537,159.001389 202.446243,158.958206 173.118622,171.098328 
M132.626907,186.474014 
	C132.839920,186.528656 133.052933,186.583298 133.265945,186.637924 
	C133.129059,186.503433 132.992172,186.368927 132.626907,186.474014 
z"/>
<path fill="#000000" opacity="1.000000" stroke="none" 
	d="
M286.081177,310.028625 
	C258.143005,291.017761 256.333160,249.321777 275.592499,224.031036 
	C290.201233,204.847290 316.462921,199.766068 334.972198,213.110489 
	C347.439606,222.098969 353.817108,234.948807 356.078796,250.130142 
	C358.495270,266.350250 354.915100,281.141327 346.097900,294.633911 
	C337.328278,308.053680 324.933838,316.009155 308.595093,316.522278 
	C300.659882,316.771545 293.245026,314.265442 286.081177,310.028625 
M310.145264,261.000854 
	C308.234589,261.000854 306.323914,261.000854 303.336090,261.000854 
	C310.004913,274.691498 317.594238,286.882965 317.220673,302.392395 
	C325.533813,297.922272 330.860840,291.974915 334.580261,284.644226 
	C336.151642,281.547150 338.377655,280.444183 341.525238,279.951324 
	C344.331726,279.511841 347.061401,278.581635 349.825012,277.868011 
	C349.884796,277.302856 349.944611,276.737701 350.004425,276.172516 
	C345.952423,274.143982 341.962677,271.976807 337.833130,270.120819 
	C332.272461,267.621643 326.603973,265.362274 321.495239,262.443665 
	C326.240662,262.628296 330.986511,262.967712 335.731354,262.953552 
	C340.357147,262.939697 342.784882,260.302948 341.737915,255.975647 
	C339.822937,248.060669 337.432983,240.260605 335.016937,231.610062 
	C326.703918,237.748947 319.519470,243.241089 312.137543,248.453613 
	C304.623047,253.759750 304.541351,253.635910 310.775330,260.051575 
	C310.971283,260.253265 310.935211,260.680420 310.145264,261.000854 
M267.000000,265.263245 
	C267.226288,271.416718 271.653442,274.182953 277.533752,271.053711 
	C282.742645,268.281769 287.634369,264.736725 292.149719,260.921722 
	C294.083801,259.287628 296.228790,255.671204 295.666779,253.699905 
	C293.191589,245.018036 290.306549,236.354721 286.497162,228.184937 
	C283.809845,222.421555 280.330505,222.559616 277.088989,227.987839 
	C270.431580,239.136307 267.325714,251.379929 267.000000,265.263245 
M291.164246,267.671844 
	C286.558960,274.576691 281.925568,281.463074 277.362213,288.395508 
	C275.548492,291.150818 274.001190,294.213470 277.941895,296.362610 
	C284.126648,299.735596 290.240540,303.539520 296.858337,305.727783 
	C302.757935,307.678558 305.787201,305.182922 306.914886,298.702881 
	C307.603180,294.747803 307.931885,290.331238 306.868805,286.559753 
	C305.083313,280.225464 302.259460,274.148651 299.503265,268.132629 
	C296.473602,261.519653 296.291840,261.602936 291.164246,267.671844 
M309.880005,213.456879 
	C304.087708,212.866913 298.295380,212.276947 292.313538,211.667679 
	C292.313538,213.362320 292.109467,214.008286 292.343597,214.289566 
	C297.356964,220.312897 298.018311,227.505951 298.008240,234.902145 
	C298.003723,238.230484 297.742401,241.608566 298.210907,244.876144 
	C298.975189,250.206696 303.340210,252.095322 306.958557,248.159424 
	C312.854126,241.746429 318.222443,234.746933 323.036530,227.480377 
	C325.848480,223.235916 323.749664,218.298889 319.199493,216.281906 
	C316.513855,215.091431 313.527649,214.578979 309.880005,213.456879 
z"/>
<path fill="#000000" opacity="1.000000" stroke="none" 
	d="
M385.284302,118.349823 
	C370.569672,125.303711 356.660126,133.626526 341.625061,138.416000 
	C328.265289,142.671783 313.554901,142.485199 299.625549,145.205811 
	C281.568817,148.732559 263.412262,149.535614 245.149994,148.930832 
	C234.597076,148.581329 224.067230,147.534210 213.527008,146.801071 
	C213.232208,146.362228 212.937408,145.923386 212.642593,145.484543 
	C214.139526,144.133148 215.417526,142.285553 217.169617,141.512543 
	C227.037613,137.158875 236.972046,132.945724 246.974411,128.909119 
	C260.383667,123.497597 274.166687,119.236244 288.544281,117.398209 
	C295.593689,116.497009 302.748993,116.102676 309.859802,116.060905 
	C335.842194,115.908272 361.826050,116.000519 388.750214,116.000519 
	C387.247314,117.041084 386.423553,117.611427 385.284302,118.349823 
z"/>
<path fill="#E2EDEC" opacity="1.000000" stroke="none" 
	d="
M470.348206,239.029556 
	C470.348206,226.229752 470.348206,213.429932 470.348206,199.990280 
	C474.784668,199.415848 479.992676,198.524582 485.234528,198.225464 
	C486.444855,198.156403 488.285919,199.852966 488.959839,201.181763 
	C493.251556,209.644363 497.282410,218.238953 501.438416,226.770966 
	C502.220978,228.377563 503.180115,229.898148 504.669647,232.546280 
	C507.099243,227.067184 509.139526,222.614700 511.056061,218.109558 
	C514.050964,211.069626 516.880798,203.958008 519.981567,196.965927 
	C520.556946,195.668488 521.948975,194.076675 523.190674,193.847229 
	C528.035767,192.952011 532.971863,192.549637 538.399658,191.901230 
	C538.399658,196.527161 538.319275,200.787643 538.413940,205.044235 
	C538.772949,221.191086 539.042297,237.342499 539.683960,253.478729 
	C539.848450,257.614624 538.977722,259.617920 534.552307,259.839539 
	C530.106567,260.062164 525.691345,260.893982 520.313354,261.579956 
	C520.313354,256.988159 520.313354,252.892578 520.226562,248.317596 
	C520.139832,247.838181 520.310791,248.070618 520.673096,248.084320 
	C525.919556,250.463455 529.394348,246.984604 533.485291,244.677307 
	C529.201782,242.728989 524.918213,240.780655 520.693604,238.409775 
	C520.752563,235.573700 520.752563,233.160172 520.752563,230.746658 
	C520.418579,230.656342 520.084595,230.566025 519.750610,230.475708 
	C518.789673,233.545212 517.828796,236.614716 517.011047,239.226852 
	C512.391235,238.138199 507.880646,236.476562 503.275787,236.151794 
	C498.269653,235.798752 493.175934,236.688171 487.897461,237.118744 
	C487.360168,237.325424 487.142548,237.545105 486.700958,237.941879 
	C485.941437,238.061279 485.502625,238.099442 484.845703,237.845459 
	C483.089813,237.986450 481.552094,238.419586 479.695251,238.936676 
	C478.938568,239.059647 478.501007,239.098663 477.900330,238.881470 
	C476.499176,239.036880 475.261200,239.448517 473.702026,239.941238 
	C472.941559,240.060699 472.502319,240.099045 471.935303,239.896988 
	C471.321075,239.447571 470.834656,239.238571 470.348206,239.029556 
z"/>
<path fill="#000000" opacity="1.000000" stroke="none" 
	d="
M557.063599,222.628571 
	C558.174866,220.546539 559.090088,218.747040 560.342407,217.224808 
	C562.989441,214.007172 562.840454,210.407104 560.549500,207.610092 
	C558.611511,205.244003 558.437012,203.205093 559.580200,200.957336 
	C562.559143,195.100021 565.063965,188.793991 569.095337,183.732117 
	C574.132080,177.407822 580.948120,177.918137 586.888062,183.326019 
	C594.668640,190.409668 597.128662,199.998489 598.764282,209.595642 
	C601.157654,223.637863 600.353882,237.678192 595.052795,251.146805 
	C593.904175,254.064987 592.598877,257.007141 590.849915,259.588776 
	C582.313293,272.190155 572.297607,269.931763 564.967529,258.667297 
	C563.699341,256.718414 563.231995,254.016739 563.083923,251.620193 
	C562.796997,246.974625 563.018555,242.298660 562.993469,237.635498 
	C562.976868,234.543945 563.725647,231.352524 558.926636,230.417282 
	C557.852539,230.207962 557.633179,225.612762 557.063599,222.628571 
M576.471130,260.233978 
	C584.589172,255.527649 587.061584,247.483658 588.679138,239.077118 
	C588.936401,237.740082 587.952332,235.839264 586.986145,234.651230 
	C583.796143,230.728653 572.384399,228.172165 567.074341,230.112946 
	C567.422485,231.161621 567.641113,232.287537 568.145630,233.266068 
	C572.122986,240.980850 575.745056,248.570312 571.794861,257.657715 
	C570.203735,261.317932 573.370056,261.043457 576.471130,260.233978 
M589.519043,222.685608 
	C590.672058,216.182999 588.487549,210.274857 586.785400,203.476791 
	C579.324768,209.701996 572.624573,215.292618 565.924438,220.883240 
	C566.054688,221.363144 566.184998,221.843048 566.315247,222.322952 
	C573.762390,223.952530 581.186035,225.861359 589.519043,222.685608 
M578.448486,193.920578 
	C578.287354,193.448151 578.210938,192.922318 577.951965,192.511566 
	C575.404724,188.471695 571.421143,190.095322 568.025513,190.468918 
	C567.437805,190.533585 567.149292,194.194565 566.892822,196.215988 
	C566.292664,200.946548 565.770996,205.687607 565.272949,210.430222 
	C565.133545,211.756653 565.187012,213.103333 565.151978,214.440704 
	C566.579102,213.981735 568.776123,213.950653 569.307861,212.994019 
	C572.643127,206.993332 575.607361,200.786453 578.448486,193.920578 
z"/>
<path fill="#E1EBEA" opacity="1.000000" stroke="none" 
	d="
M398.683533,255.842636 
	C398.595276,242.736557 398.621307,229.628326 398.375763,216.525192 
	C398.228973,208.692688 398.015228,208.514969 405.710449,207.557861 
	C414.095581,206.514969 422.511627,205.557709 430.943451,205.086517 
	C449.586700,204.044662 461.458832,215.241470 462.043671,234.066940 
	C462.105438,236.055222 461.965393,238.049805 461.608337,240.530182 
	C455.042358,242.259064 448.786987,243.499191 442.637573,244.299469 
	C442.923035,240.884232 443.435333,237.884766 443.222351,234.937729 
	C442.454132,224.308746 435.292725,218.574158 424.681183,219.826477 
	C418.169922,220.594894 417.909088,220.911880 417.901398,227.538788 
	C417.895599,232.523422 417.728394,237.510590 417.847717,242.491501 
	C417.908356,245.022644 418.442932,247.542465 418.770172,250.307007 
	C418.777130,250.546600 418.725189,251.023178 418.477661,251.061340 
	C417.828583,251.352509 417.427063,251.605545 416.816040,251.942047 
	C416.606567,252.025528 416.156189,252.049698 415.797302,252.032516 
	C414.638092,252.395691 413.837799,252.776062 413.033508,253.109436 
	C413.029480,253.062424 413.123138,253.073898 412.686279,253.041016 
	C407.727478,253.952988 403.205505,254.897812 398.683533,255.842636 
z"/>
<path fill="#010101" opacity="1.000000" stroke="none" 
	d="
M416.156189,252.049698 
	C416.156189,252.049698 416.606567,252.025528 417.128845,252.005768 
	C418.009155,251.665070 418.367157,251.344116 418.725159,251.023163 
	C418.725189,251.023178 418.777130,250.546600 419.201233,250.285980 
	C426.695038,248.686661 433.764771,247.347977 440.911255,246.379364 
	C443.691528,246.500900 446.510986,246.654892 449.073303,245.916489 
	C453.777313,244.560867 458.329773,242.679321 462.945404,241.017029 
	C464.976105,240.679398 467.006775,240.341766 469.558105,240.298431 
	C470.740173,240.440964 471.401611,240.289169 472.063049,240.137390 
	C472.502319,240.099045 472.941559,240.060699 474.069458,240.007416 
	C475.859894,239.707565 476.961670,239.422623 478.063477,239.137680 
	C478.501007,239.098663 478.938568,239.059647 480.082214,239.003265 
	C482.213501,238.703140 483.638672,238.420364 485.063843,238.137589 
	C485.502625,238.099442 485.941437,238.061279 486.970398,237.975983 
	C487.747192,237.631180 487.933777,237.333527 488.120361,237.035858 
	C493.175934,236.688171 498.269653,235.798752 503.275787,236.151794 
	C507.880646,236.476562 512.391235,238.138199 517.011047,239.226852 
	C517.828796,236.614716 518.789673,233.545212 519.750610,230.475708 
	C520.084595,230.566025 520.418579,230.656342 520.752563,230.746658 
	C520.752563,233.160172 520.752563,235.573700 520.420593,238.684448 
	C520.162659,242.277985 520.236755,245.174301 520.310791,248.070618 
	C520.310791,248.070618 520.139832,247.838181 520.007629,247.895966 
	C518.145935,248.295959 516.416382,248.638184 514.454834,248.608856 
	C513.845215,247.490143 513.398804,246.066147 513.100342,246.096512 
	C507.946838,246.620682 502.782196,247.163589 497.692200,248.096436 
	C496.354034,248.341675 495.259338,249.915421 494.052826,250.879059 
	C492.646301,251.254639 491.239746,251.630203 489.316925,251.647751 
	C487.177460,251.481903 485.554260,251.674072 483.536865,251.910522 
	C482.090210,252.016983 481.037811,252.079147 479.642090,252.074539 
	C478.509613,252.293961 477.720490,252.580154 476.562653,252.910675 
	C475.457642,253.017883 474.721313,253.080780 473.629425,253.078445 
	C472.039978,253.734726 470.806091,254.456253 469.581360,255.383102 
	C469.590515,255.588425 469.513916,255.992264 469.513916,255.992264 
	C465.636444,256.329102 461.758942,256.665924 457.516541,256.662170 
	C457.683441,255.309601 458.215332,254.297607 458.899414,252.996048 
	C454.943207,254.752609 451.436981,256.309387 447.603424,257.910278 
	C446.842560,258.015533 446.409088,258.076630 445.655090,258.073608 
	C444.837524,258.323120 444.340424,258.636749 443.482727,258.955139 
	C442.407074,259.019196 441.692047,259.078552 440.574890,259.072632 
	C437.739136,259.645966 435.305481,260.284515 432.915222,260.938293 
	C432.958649,260.953552 432.926239,260.867401 432.516235,260.930908 
	C429.367584,261.985229 426.628906,262.976013 423.474487,263.987854 
	C421.155396,264.350189 419.244415,264.653717 417.350189,265.039581 
	C410.933411,266.346619 404.522522,267.682770 398.109406,269.007812 
	C394.521393,269.555725 390.933411,270.103668 386.726288,270.913788 
	C383.543488,270.934540 380.979797,270.693115 378.229401,270.434113 
	C381.888306,267.212769 385.404175,264.117371 388.920013,261.021973 
	C391.710205,259.371307 394.500397,257.720642 397.649109,256.405090 
	C403.046143,255.518051 408.084625,254.295975 413.123138,253.073898 
	C413.123138,253.073898 413.029480,253.062424 413.385864,253.035156 
	C414.546875,252.688492 415.351532,252.369095 416.156189,252.049698 
z"/>
<path fill="#000000" opacity="1.000000" stroke="none" 
	d="
M344.594910,196.335449 
	C335.244232,188.532471 324.720764,184.637222 312.784302,183.140900 
	C324.344391,178.763412 335.894928,174.360443 347.469238,170.020905 
	C352.131317,168.272980 356.899261,166.797974 361.517426,164.945496 
	C364.662170,163.684067 367.124908,164.230682 369.827728,166.200043 
	C372.044189,167.815018 374.680969,169.191772 377.332825,169.809647 
	C386.809418,172.017654 395.610291,177.612701 402.344482,186.773102 
	C396.702850,187.907120 391.534790,189.045029 386.328888,189.970001 
	C377.708740,191.501648 369.061005,192.877502 360.431610,194.357956 
	C357.162476,194.918793 355.477661,196.684143 355.960419,200.238098 
	C356.192566,201.946991 356.000458,203.713501 356.000458,205.453934 
	C355.586456,205.623199 355.172455,205.792480 354.758423,205.961746 
	C351.471558,202.816422 348.184662,199.671097 344.594910,196.335449 
z"/>
<path fill="#E2EDEC" opacity="1.000000" stroke="none" 
	d="
M388.608948,260.781219 
	C385.404175,264.117371 381.888306,267.212769 378.229401,270.434113 
	C380.979797,270.693115 383.543488,270.934540 386.488342,271.247528 
	C383.970978,280.375702 380.351868,288.991852 372.615875,295.292419 
	C367.883789,291.180145 363.430878,287.310455 358.522156,283.044647 
	C371.810089,272.526306 368.520264,257.811371 368.662567,244.132462 
	C368.771118,233.697479 367.845642,223.251724 367.350464,212.144760 
	C374.085449,211.348953 381.014221,210.530258 388.297882,209.669632 
	C388.297882,227.006042 388.297882,243.773254 388.608948,260.781219 
z"/>
<path fill="#000000" opacity="1.000000" stroke="none" 
	d="
M103.842041,228.656982 
	C102.774498,229.898117 101.967064,230.877548 100.474915,232.687576 
	C103.019951,232.299042 104.826355,232.516556 106.007317,231.759018 
	C111.623817,228.156326 117.483856,229.570709 123.571915,229.830795 
	C137.458557,230.424057 151.410202,230.514435 165.292496,229.875748 
	C176.817215,229.345520 188.310074,227.699203 199.762405,226.144821 
	C210.053207,224.748077 218.133331,218.963486 225.527832,212.038483 
	C227.005554,210.654556 228.899628,209.715210 231.033279,209.258453 
	C219.273026,222.318954 206.373535,232.773712 187.360794,233.199127 
	C172.179138,233.538818 157.059509,236.092819 141.871750,236.854187 
	C121.704369,237.865204 101.543419,238.633118 81.540199,233.854813 
	C67.735313,230.557144 53.613358,228.589279 39.639374,225.993347 
	C38.217106,225.729126 36.838058,225.232208 35.379391,224.826706 
	C37.871841,219.374146 46.453419,214.830704 51.677120,215.722900 
	C69.580032,218.780731 87.496864,221.756989 106.151474,224.889099 
	C105.441605,226.103622 104.771881,227.249466 103.842041,228.656982 
z"/>
<path fill="#000000" opacity="1.000000" stroke="none" 
	d="
M409.659119,127.631821 
	C422.998322,124.834183 435.894104,121.892090 448.905823,119.611511 
	C467.109619,116.420898 485.486359,115.758621 503.816315,118.305595 
	C507.332947,118.794235 510.736755,121.326736 513.765137,123.509415 
	C515.029663,124.420784 515.918823,127.046043 515.578308,128.581528 
	C515.342041,129.647034 512.766724,130.696548 511.145660,130.861618 
	C505.388275,131.447891 499.596313,131.784821 493.809540,131.973541 
	C480.874603,132.395386 467.933868,132.635757 454.997375,133.014404 
	C433.281616,133.650009 411.567444,134.338776 389.852264,134.994232 
	C388.277954,135.041748 386.700928,135.000473 384.936188,133.889267 
	C393.046600,131.853683 401.157013,129.818115 409.659119,127.631821 
z"/>
<path fill="#000000" opacity="1.000000" stroke="none" 
	d="
M157.191010,211.303009 
	C151.400345,214.745163 151.158600,214.582169 148.559219,209.504395 
	C147.964249,208.342102 146.209610,207.483551 144.818771,207.097733 
	C143.340317,206.687622 141.659912,207.005524 140.067703,207.005524 
	C140.010361,206.597519 139.953033,206.189514 139.895706,205.781525 
	C149.551514,203.855118 159.174255,201.739380 168.870697,200.045593 
	C184.327209,197.345642 199.799194,194.687134 215.334320,192.507812 
	C221.457001,191.648880 227.780670,191.863678 233.980789,192.192841 
	C235.362061,192.266174 236.608536,194.878586 237.917068,196.321976 
	C236.401733,197.214417 234.929535,198.787628 233.363953,198.886780 
	C224.427505,199.452759 215.458450,199.517136 206.526596,200.131424 
	C204.781189,200.251450 202.983887,201.850754 201.522400,203.125381 
	C200.444046,204.065872 199.856277,205.577896 199.079193,206.853119 
	C196.911224,210.410828 193.661957,213.213760 189.697113,211.668732 
	C187.111328,210.661118 185.515549,207.112946 183.476288,204.702835 
	C183.803345,204.120544 184.130417,203.538254 184.457489,202.955948 
	C180.933090,203.319580 177.407303,203.670410 173.884735,204.050934 
	C171.094391,204.352371 168.028793,204.070999 165.591110,205.170029 
	C162.604034,206.516815 160.143921,209.032394 157.191010,211.303009 
z"/>
<path fill="#E0EBEA" opacity="1.000000" stroke="none" 
	d="
M398.353943,269.388855 
	C404.522522,267.682770 410.933411,266.346619 417.350189,265.039581 
	C419.244415,264.653717 421.155396,264.350189 423.904053,263.996429 
	C427.475037,262.945068 430.200623,261.906250 432.926239,260.867401 
	C432.926239,260.867401 432.958649,260.953552 433.338470,260.969482 
	C436.137848,260.369537 438.557434,259.753723 440.976990,259.137878 
	C441.692047,259.078552 442.407074,259.019196 443.787109,258.963501 
	C444.959930,258.690643 445.467743,258.414185 445.975586,258.137726 
	C446.409088,258.076630 446.842560,258.015533 447.835693,258.212280 
	C450.680603,258.351776 452.965851,258.233429 455.251129,258.115112 
	C449.377899,267.568970 440.946655,272.919098 429.873901,274.350494 
	C419.609619,275.677368 409.383423,277.298920 398.598511,278.869659 
	C398.598511,275.319336 398.598511,272.544647 398.353943,269.388855 
z"/>
<path fill="#E1ECEB" opacity="1.000000" stroke="none" 
	d="
M469.720398,256.413391 
	C469.513916,255.992264 469.590515,255.588425 469.977081,255.324966 
	C471.570770,254.422226 472.777863,253.782959 473.984985,253.143692 
	C474.721313,253.080780 475.457642,253.017883 476.743683,253.182083 
	C478.190735,252.986572 479.088074,252.563934 479.985413,252.141312 
	C481.037811,252.079147 482.090210,252.016983 483.758026,252.206085 
	C485.582153,252.638184 486.790894,252.818985 487.999603,252.999786 
	C487.999603,257.268402 487.999603,261.537018 487.999603,266.210358 
	C482.108643,267.020508 476.287720,267.821045 469.926880,268.695801 
	C469.926880,264.367096 469.926880,260.600800 469.720398,256.413391 
z"/>
<path fill="#000000" opacity="1.000000" stroke="none" 
	d="
M210.262726,293.028564 
	C219.810822,294.281311 228.898239,295.553955 237.985672,296.826630 
	C237.949814,297.171417 237.913956,297.516235 237.878098,297.861053 
	C209.980713,298.529388 182.083313,299.197754 154.185928,299.866119 
	C154.173935,299.703094 154.161942,299.540100 154.149948,299.377075 
	C164.679047,298.251190 175.213470,297.172333 185.735535,295.984161 
	C193.765808,295.077393 201.780457,294.032135 210.262726,293.028564 
z"/>
<path fill="#000000" opacity="1.000000" stroke="none" 
	d="
M407.708801,147.974716 
	C401.071350,147.433701 394.886780,146.874878 388.702240,146.316071 
	C388.715088,145.777176 388.727936,145.238281 388.740753,144.699387 
	C399.912903,139.289474 411.526855,140.932983 423.159760,142.878860 
	C423.265625,143.426743 423.371521,143.974640 423.477386,144.522522 
	C418.372162,145.667328 413.266937,146.812119 407.708801,147.974716 
z"/>
<path fill="#DCE6E5" opacity="1.000000" stroke="none" 
	d="
M512.345764,250.157471 
	C511.012817,254.055603 509.891449,258.047058 508.234802,261.802399 
	C507.637268,263.156860 505.838898,264.589020 504.429871,264.773499 
	C503.419647,264.905762 501.780457,263.235046 501.060028,261.997284 
	C499.158844,258.730896 497.605164,255.262253 496.244080,251.489899 
	C501.831940,250.789581 507.088867,250.473526 512.345764,250.157471 
z"/>
<path fill="#F5FEFD" opacity="1.000000" stroke="none" 
	d="
M512.553101,250.008026 
	C507.088867,250.473526 501.831940,250.789581 496.098999,251.155426 
	C495.273193,251.137909 494.923492,251.070618 494.313293,250.941208 
	C495.259338,249.915421 496.354034,248.341675 497.692200,248.096436 
	C502.782196,247.163589 507.946838,246.620682 513.100342,246.096512 
	C513.398804,246.066147 513.845215,247.490143 514.071899,248.606293 
	C513.534180,249.269714 513.147339,249.564133 512.553101,250.008026 
z"/>
<path fill="#F5FEFD" opacity="1.000000" stroke="none" 
	d="
M462.743774,240.979248 
	C458.329773,242.679321 453.777313,244.560867 449.073303,245.916489 
	C446.510986,246.654892 443.691528,246.500900 441.012177,246.111023 
	C441.534760,245.228165 442.033173,244.983734 442.531616,244.739319 
	C448.786987,243.499191 455.042358,242.259064 461.714783,240.979004 
	C462.131836,240.939102 462.542145,240.941437 462.743774,240.979248 
z"/>
<path fill="#F8FFFF" opacity="1.000000" stroke="none" 
	d="
M455.509216,258.050049 
	C452.965851,258.233429 450.680603,258.351776 448.163055,258.168121 
	C451.436981,256.309387 454.943207,254.752609 458.899414,252.996048 
	C458.215332,254.297607 457.683441,255.309601 457.085510,256.663513 
	C456.602051,257.331970 456.184692,257.658508 455.509216,258.050049 
z"/>
<path fill="#F8FFFF" opacity="1.000000" stroke="none" 
	d="
M412.686279,253.041016 
	C408.084625,254.295975 403.046143,255.518051 398.001831,256.369507 
	C397.996002,255.998856 398.335815,255.903275 398.509674,255.872955 
	C403.205505,254.897812 407.727478,253.952988 412.686279,253.041016 
z"/>
<path fill="#000000" opacity="1.000000" stroke="none" 
	d="
M224.758911,169.000671 
	C225.748016,169.069000 226.389557,169.137421 227.031082,169.205856 
	C227.039413,169.363144 227.047745,169.520432 227.056076,169.677704 
	C225.243057,169.964417 223.430038,170.251114 221.617004,170.537827 
	C221.560532,170.244324 221.504059,169.950821 221.447586,169.657318 
	C222.435501,169.438461 223.423401,169.219604 224.758911,169.000671 
z"/>
<path fill="#F8FFFF" opacity="1.000000" stroke="none" 
	d="
M488.176208,252.835236 
	C486.790894,252.818985 485.582153,252.638184 484.152283,252.161819 
	C485.554260,251.674072 487.177460,251.481903 488.925232,251.651276 
	C488.764496,252.175980 488.532135,252.395264 488.176208,252.835236 
z"/>
<path fill="#F8FFFF" opacity="1.000000" stroke="none" 
	d="
M471.935303,239.896973 
	C471.401611,240.289169 470.740173,240.440964 469.952148,240.300568 
	C469.888153,239.832169 469.950775,239.655960 470.180786,239.254639 
	C470.834656,239.238571 471.321075,239.447571 471.935303,239.896973 
z"/>
<path fill="#000000" opacity="1.000000" stroke="none" 
	d="
M356.549683,207.465698 
	C356.582306,207.520828 356.517029,207.410568 356.549683,207.465698 
z"/>
<path fill="#FDFBFB" opacity="1.000000" stroke="none" 
	d="
M259.002014,85.793327 
	C258.539734,87.164848 258.266602,88.635628 257.586426,88.857277 
	C252.823166,90.409477 248.312088,88.667137 245.234390,84.456970 
	C241.056015,78.741188 236.830643,73.059769 231.862213,66.329811 
	C231.862213,74.541847 231.862213,81.408531 231.862213,88.636269 
	C227.818024,88.636269 224.105515,88.636269 220.065155,88.636269 
	C220.065155,74.565636 220.065155,60.528515 220.065155,46.546387 
	C226.692078,44.781200 231.533188,46.088554 235.115967,52.412327 
	C238.448395,58.294193 242.871078,63.558369 247.639862,70.254425 
	C247.639862,61.420403 247.639862,53.970722 247.639862,46.264595 
	C251.790192,46.264595 255.514587,46.264595 259.002777,46.264595 
	C259.002777,59.437252 259.002777,72.375862 259.002014,85.793327 
z"/>
<path fill="#FDFBFB" opacity="1.000000" stroke="none" 
	d="
M158.861832,79.184982 
	C159.025650,82.598923 159.169205,85.541199 159.325790,88.750214 
	C155.154846,88.750214 151.387665,88.750214 147.175674,88.750214 
	C147.175674,75.169472 147.175674,61.630028 147.175674,47.291512 
	C155.982391,47.224709 164.971405,45.426991 173.603409,48.348785 
	C182.413376,51.330830 184.733154,63.467125 177.908676,70.218803 
	C175.448151,72.653076 175.538834,74.394470 176.920807,77.030991 
	C178.830780,80.674873 180.471970,84.459656 182.614227,89.002579 
	C178.768433,89.002579 175.660400,89.284096 172.644226,88.879913 
	C171.207001,88.687317 169.407928,87.486664 168.711288,86.224594 
	C167.115433,83.333511 166.388412,79.949661 164.703171,77.127426 
	C164.004364,75.957176 161.757294,75.711449 160.214325,75.045280 
	C159.756744,76.267960 159.299164,77.490639 158.861832,79.184982 
M169.406326,60.990509 
	C167.261307,55.837704 163.064011,57.091778 158.622925,57.258514 
	C159.428146,60.838341 155.886597,65.166687 160.976746,66.862373 
	C165.540146,68.382576 168.577408,66.158173 169.406326,60.990509 
z"/>
<path fill="#FEFCFC" opacity="1.000000" stroke="none" 
	d="
M191.070206,46.998863 
	C198.698624,46.998859 205.836380,46.998859 213.518097,46.998859 
	C213.802292,50.751778 214.058151,54.130741 214.347061,57.946056 
	C208.382278,57.570709 203.008377,57.232544 197.674210,56.896877 
	C196.020950,61.590717 197.325378,63.448120 201.762207,63.008221 
	C205.369385,62.650574 208.984940,62.377274 213.239685,62.011265 
	C213.037537,65.833076 212.850662,69.366287 212.647537,73.206413 
	C207.458115,73.206413 202.563171,73.206413 197.472427,73.206413 
	C196.039932,77.314224 197.515350,79.200844 201.731445,78.979416 
	C206.004623,78.754997 210.269821,78.378418 215.008804,78.034340 
	C215.008804,79.568542 215.080795,80.834648 214.996887,82.090340 
	C214.524658,89.156662 214.512527,89.092751 207.386383,89.018776 
	C199.920502,88.941261 192.453201,89.001442 184.760773,89.001442 
	C184.760773,75.001099 184.760773,61.404045 184.760773,46.998863 
	C186.775879,46.998863 188.677719,46.998863 191.070206,46.998863 
z"/>
<path fill="#FCF8F8" opacity="1.000000" stroke="none" 
	d="
M281.717773,89.008293 
	C278.300323,89.010078 275.347198,89.010078 272.081024,89.010078 
	C272.081024,77.826813 272.081024,67.103485 272.081024,56.438843 
	C268.684998,56.638691 265.613159,56.819458 262.253632,57.017159 
	C262.849915,53.357700 263.347321,50.305168 263.804901,47.497086 
	C273.735229,47.497086 283.292908,47.497086 293.305969,47.497086 
	C293.305969,50.246449 293.305969,53.284599 293.305969,56.920429 
	C290.605682,56.746639 287.730286,56.561581 284.352661,56.344200 
	C284.352661,63.443462 284.320038,70.650505 284.368988,77.856995 
	C284.388153,80.680260 284.810516,83.519836 284.587555,86.315155 
	C284.511353,87.270164 283.024445,88.112625 281.717773,89.008293 
z"/>
<path fill="#FDFBFB" opacity="1.000000" stroke="none" 
	d="
M432.714233,78.007324 
	C426.574707,61.362099 435.769775,46.095287 451.602203,45.998371 
	C461.950867,45.935017 470.682800,52.956108 472.736694,62.992058 
	C474.971283,73.910889 469.566437,84.835892 460.065765,88.604225 
	C450.318481,92.470375 439.733551,89.043579 433.850006,80.104790 
	C433.486145,79.551979 433.211029,78.940727 432.714233,78.007324 
M456.720398,77.515404 
	C463.741943,73.349319 463.207703,61.733288 456.346863,58.171223 
	C452.145355,55.989849 448.268707,56.781033 445.047241,60.251759 
	C441.405609,64.175201 440.935303,70.109444 443.812500,74.594643 
	C446.447845,78.702835 450.536591,79.806534 456.720398,77.515404 
z"/>
<path fill="#FDFAFA" opacity="1.000000" stroke="none" 
	d="
M393.345459,52.376205 
	C400.419464,45.355328 408.432983,44.321583 417.045990,47.724712 
	C425.955780,51.245106 426.182983,54.431137 418.357361,60.826649 
	C410.506439,56.147594 406.334534,55.819954 402.568237,59.586689 
	C398.971771,63.183586 398.261536,70.510735 401.082306,74.916718 
	C403.744629,79.075157 408.639160,79.927208 415.671875,77.272942 
	C415.473602,74.010101 415.267731,70.622124 415.043121,66.925568 
	C419.341370,66.925568 423.228302,66.925568 427.519684,66.925568 
	C427.519684,74.644859 427.519684,82.189217 427.519684,88.806755 
	C422.244781,89.193336 417.133118,89.532455 412.027893,89.949867 
	C402.840454,90.701050 394.947784,88.206764 390.465729,79.696548 
	C385.532166,70.329079 386.481903,61.101921 393.345459,52.376205 
z"/>
<path fill="#FDFBFB" opacity="1.000000" stroke="none" 
	d="
M339.543304,48.095425 
	C343.333466,46.880882 347.114594,46.092670 351.246582,45.231312 
	C351.246582,60.309479 351.246582,74.343666 351.246582,88.518776 
	C344.774200,89.721710 339.753235,89.603386 336.144684,83.189865 
	C332.996033,77.593666 328.590088,72.704872 324.027222,66.541153 
	C324.027222,74.500656 324.027222,81.418976 324.027222,88.664322 
	C319.769958,88.664322 316.059662,88.664322 312.045227,88.664322 
	C312.045227,74.543968 312.045227,60.523529 312.045227,46.550022 
	C318.641235,44.831196 323.508209,46.028271 327.089081,52.373226 
	C330.408447,58.254734 334.832092,63.513020 339.534271,70.120369 
	C339.534271,62.063931 339.534271,55.292843 339.543304,48.095425 
z"/>
<path fill="#FCF8F8" opacity="1.000000" stroke="none" 
	d="
M366.213806,61.937023 
	C364.550964,64.219162 363.080200,66.169128 361.398590,68.398621 
	C359.771942,66.931190 358.580292,65.856194 357.174530,64.588043 
	C361.390533,59.664989 360.729340,55.341892 355.285828,51.541588 
	C357.963013,49.153038 360.272675,47.092403 362.546783,45.063477 
	C368.750732,49.198742 369.683868,53.373039 366.213806,61.937023 
z"/>
<path fill="#0B0B0B" opacity="1.000000" stroke="none" 
	d="
M132.741104,186.354218 
	C132.992172,186.368927 133.129059,186.503433 133.265945,186.637939 
	C133.052933,186.583298 132.839920,186.528656 132.741104,186.354218 
z"/>
<path fill="#0A0A0A" opacity="1.000000" stroke="none" 
	d="
M267.000000,264.802277 
	C267.325714,251.379929 270.431580,239.136307 277.088989,227.987839 
	C280.330505,222.559616 283.809845,222.421555 286.497162,228.184937 
	C290.306549,236.354721 293.191589,245.018036 295.666779,253.699905 
	C296.228790,255.671204 294.083801,259.287628 292.149719,260.921722 
	C287.634369,264.736725 282.742645,268.281769 277.533752,271.053711 
	C271.653442,274.182953 267.226288,271.416718 267.000000,264.802277 
z"/>
<path fill="#0A0A0A" opacity="1.000000" stroke="none" 
	d="
M291.361450,267.365601 
	C296.291840,261.602936 296.473602,261.519653 299.503265,268.132629 
	C302.259460,274.148651 305.083313,280.225464 306.868805,286.559753 
	C307.931885,290.331238 307.603180,294.747803 306.914886,298.702881 
	C305.787201,305.182922 302.757935,307.678558 296.858337,305.727783 
	C290.240540,303.539520 284.126648,299.735596 277.941895,296.362610 
	C274.001190,294.213470 275.548492,291.150818 277.362213,288.395508 
	C281.925568,281.463074 286.558960,274.576691 291.361450,267.365601 
z"/>
<path fill="#0A0A0A" opacity="1.000000" stroke="none" 
	d="
M320.981781,263.000000 
	C326.603973,265.362274 332.272461,267.621643 337.833130,270.120819 
	C341.962677,271.976807 345.952423,274.143982 350.004425,276.172516 
	C349.944611,276.737701 349.884796,277.302856 349.825012,277.868011 
	C347.061401,278.581635 344.331726,279.511841 341.525238,279.951324 
	C338.377655,280.444183 336.151642,281.547150 334.580261,284.644226 
	C330.860840,291.974915 325.533813,297.922272 317.220673,302.392395 
	C317.594238,286.882965 310.004913,274.691498 303.336090,261.000854 
	C306.323914,261.000854 308.234589,261.000854 310.906250,261.000854 
	C312.107391,261.000549 312.547546,261.000275 313.160095,261.243896 
	C313.891174,261.659332 314.449860,261.830902 315.337250,262.001709 
	C316.104248,262.000641 316.542542,262.000305 317.154663,262.243713 
	C317.888519,262.659088 318.448547,262.830780 319.337524,263.001709 
	C320.104950,263.000671 320.543365,263.000336 320.981781,263.000000 
z"/>
<path fill="#0A0A0A" opacity="1.000000" stroke="none" 
	d="
M310.278320,213.609253 
	C313.527649,214.578979 316.513855,215.091431 319.199493,216.281906 
	C323.749664,218.298889 325.848480,223.235916 323.036530,227.480377 
	C318.222443,234.746933 312.854126,241.746429 306.958557,248.159424 
	C303.340210,252.095322 298.975189,250.206696 298.210907,244.876144 
	C297.742401,241.608566 298.003723,238.230484 298.008240,234.902145 
	C298.018311,227.505951 297.356964,220.312897 292.343597,214.289566 
	C292.109467,214.008286 292.313538,213.362320 292.313538,211.667679 
	C298.295380,212.276947 304.087708,212.866913 310.278320,213.609253 
z"/>
<path fill="#0A0A0A" opacity="1.000000" stroke="none" 
	d="
M312.987701,261.000000 
	C312.547546,261.000275 312.107391,261.000549 311.337280,261.001648 
	C310.935211,260.680420 310.971283,260.253265 310.775330,260.051575 
	C304.541351,253.635910 304.623047,253.759750 312.137543,248.453613 
	C319.519470,243.241089 326.703918,237.748947 335.016937,231.610062 
	C337.432983,240.260605 339.822937,248.060669 341.737915,255.975647 
	C342.784882,260.302948 340.357147,262.939697 335.731354,262.953552 
	C330.986511,262.967712 326.240662,262.628296 321.238525,262.721832 
	C320.543365,263.000336 320.104950,263.000671 319.305084,262.708435 
	C318.289368,262.277222 317.635101,262.138611 316.980835,262.000000 
	C316.542542,262.000305 316.104248,262.000641 315.304871,261.708679 
	C314.291748,261.277557 313.639740,261.138763 312.987701,261.000000 
z"/>
<path fill="#F8FFFF" opacity="1.000000" stroke="none" 
	d="
M520.673096,248.084320 
	C520.236755,245.174301 520.162659,242.277985 520.361694,239.106995 
	C524.918213,240.780655 529.201782,242.728989 533.485291,244.677307 
	C529.394348,246.984604 525.919556,250.463455 520.673096,248.084320 
z"/>
<path fill="#F8FFFF" opacity="1.000000" stroke="none" 
	d="
M484.845703,237.845459 
	C483.638672,238.420364 482.213501,238.703140 480.401367,238.919312 
	C481.552094,238.419586 483.089813,237.986450 484.845703,237.845459 
z"/>
<path fill="#F8FFFF" opacity="1.000000" stroke="none" 
	d="
M477.900330,238.881470 
	C476.961670,239.422623 475.859894,239.707565 474.390625,239.926331 
	C475.261200,239.448517 476.499176,239.036880 477.900330,238.881470 
z"/>
<path fill="#F8FFFF" opacity="1.000000" stroke="none" 
	d="
M487.897461,237.118729 
	C487.933777,237.333527 487.747192,237.631180 487.291138,237.894745 
	C487.142548,237.545105 487.360168,237.325424 487.897461,237.118729 
z"/>
<path fill="#0A0A0A" opacity="1.000000" stroke="none" 
	d="
M576.135376,260.401550 
	C573.370056,261.043457 570.203735,261.317932 571.794861,257.657715 
	C575.745056,248.570312 572.122986,240.980850 568.145630,233.266068 
	C567.641113,232.287537 567.422485,231.161621 567.074341,230.112946 
	C572.384399,228.172165 583.796143,230.728653 586.986145,234.651230 
	C587.952332,235.839264 588.936401,237.740082 588.679138,239.077118 
	C587.061584,247.483658 584.589172,255.527649 576.135376,260.401550 
z"/>
<path fill="#0A0A0A" opacity="1.000000" stroke="none" 
	d="
M589.251221,223.004715 
	C581.186035,225.861359 573.762390,223.952530 566.315247,222.322952 
	C566.184998,221.843048 566.054688,221.363144 565.924438,220.883240 
	C572.624573,215.292618 579.324768,209.701996 586.785400,203.476791 
	C588.487549,210.274857 590.672058,216.182999 589.251221,223.004715 
z"/>
<path fill="#0A0A0A" opacity="1.000000" stroke="none" 
	d="
M578.571411,194.284180 
	C575.607361,200.786453 572.643127,206.993332 569.307861,212.994019 
	C568.776123,213.950653 566.579102,213.981735 565.151978,214.440704 
	C565.187012,213.103333 565.133545,211.756653 565.272949,210.430222 
	C565.770996,205.687607 566.292664,200.946548 566.892822,196.215988 
	C567.149292,194.194565 567.437805,190.533585 568.025513,190.468918 
	C571.421143,190.095322 575.404724,188.471695 577.951965,192.511566 
	C578.210938,192.922318 578.287354,193.448151 578.571411,194.284180 
z"/>
<path fill="#0E0E0E" opacity="1.000000" stroke="none" 
	d="
M442.637573,244.299469 
	C442.033173,244.983734 441.534760,245.228165 440.935425,245.740952 
	C433.764771,247.347977 426.695038,248.686661 419.194275,250.046371 
	C418.442932,247.542465 417.908356,245.022644 417.847717,242.491501 
	C417.728394,237.510590 417.895599,232.523422 417.901398,227.538788 
	C417.909088,220.911880 418.169922,220.594894 424.681183,219.826477 
	C435.292725,218.574158 442.454132,224.308746 443.222351,234.937729 
	C443.435333,237.884766 442.923035,240.884232 442.637573,244.299469 
z"/>
<path fill="#F8FFFF" opacity="1.000000" stroke="none" 
	d="
M415.797302,252.032516 
	C415.351532,252.369095 414.546875,252.688492 413.389862,253.082153 
	C413.837799,252.776062 414.638092,252.395691 415.797302,252.032516 
z"/>
<path fill="#F8FFFF" opacity="1.000000" stroke="none" 
	d="
M418.477661,251.061325 
	C418.367157,251.344116 418.009155,251.665070 417.338318,251.922302 
	C417.427063,251.605545 417.828583,251.352509 418.477661,251.061325 
z"/>
<path fill="#F8FFFF" opacity="1.000000" stroke="none" 
	d="
M432.516235,260.930908 
	C430.200623,261.906250 427.475037,262.945068 424.319824,263.975342 
	C426.628906,262.976013 429.367584,261.985229 432.516235,260.930908 
z"/>
<path fill="#F8FFFF" opacity="1.000000" stroke="none" 
	d="
M440.574890,259.072632 
	C438.557434,259.753723 436.137848,260.369537 433.295044,260.954224 
	C435.305481,260.284515 437.739136,259.645966 440.574890,259.072632 
z"/>
<path fill="#F8FFFF" opacity="1.000000" stroke="none" 
	d="
M473.629425,253.078445 
	C472.777863,253.782959 471.570770,254.422226 469.967957,255.119644 
	C470.806091,254.456253 472.039978,253.734726 473.629425,253.078445 
z"/>
<path fill="#F8FFFF" opacity="1.000000" stroke="none" 
	d="
M479.642090,252.074539 
	C479.088074,252.563934 478.190735,252.986572 477.112366,253.137787 
	C477.720490,252.580154 478.509613,252.293961 479.642090,252.074539 
z"/>
<path fill="#F8FFFF" opacity="1.000000" stroke="none" 
	d="
M445.655090,258.073608 
	C445.467743,258.414185 444.959930,258.690643 444.147705,258.958740 
	C444.340424,258.636749 444.837524,258.323120 445.655090,258.073608 
z"/>
<path fill="#B33F3F" opacity="1.000000" stroke="none" 
	d="
M169.494339,61.361282 
	C168.577408,66.158173 165.540146,68.382576 160.976746,66.862373 
	C155.886597,65.166687 159.428146,60.838341 158.622925,57.258514 
	C163.064011,57.091778 167.261307,55.837704 169.494339,61.361282 
z"/>
<path fill="#B23D3D" opacity="1.000000" stroke="none" 
	d="
M456.383301,77.706169 
	C450.536591,79.806534 446.447845,78.702835 443.812500,74.594643 
	C440.935303,70.109444 441.405609,64.175201 445.047241,60.251759 
	C448.268707,56.781033 452.145355,55.989849 456.346863,58.171223 
	C463.207703,61.733288 463.741943,73.349319 456.383301,77.706169 
M450.751587,71.987839 
	C452.164642,71.050591 454.317261,70.382095 454.782990,69.100578 
	C455.249756,67.816124 454.301300,65.742706 453.407135,64.388931 
	C453.098846,63.922192 450.200317,64.260994 450.012848,64.781776 
	C449.324829,66.692986 449.235016,68.831230 449.039734,70.895325 
	C449.010925,71.199753 449.627594,71.565247 450.751587,71.987839 
z"/>
<path fill="#000000" opacity="1.000000" stroke="none" 
	d="
M313.160095,261.243896 
	C313.639740,261.138763 314.291748,261.277557 314.976166,261.709412 
	C314.449860,261.830902 313.891174,261.659332 313.160095,261.243896 
z"/>
<path fill="#000000" opacity="1.000000" stroke="none" 
	d="
M317.154663,262.243713 
	C317.635101,262.138611 318.289368,262.277222 318.976074,262.709167 
	C318.448547,262.830780 317.888519,262.659088 317.154663,262.243713 
z"/>
<path fill="#000000" opacity="1.000000" stroke="none" 
	d="
M450.348602,71.945160 
	C449.627594,71.565247 449.010925,71.199753 449.039734,70.895325 
	C449.235016,68.831230 449.324829,66.692986 450.012848,64.781776 
	C450.200317,64.260994 453.098846,63.922192 453.407135,64.388931 
	C454.301300,65.742706 455.249756,67.816124 454.782990,69.100578 
	C454.317261,70.382095 452.164642,71.050591 450.348602,71.945160 
z"/>
</svg>